<svg width="33" height="20" viewBox="0 0 33 20" fill="none" xmlns="http://www.w3.org/2000/svg">
<path d="M11.3334 18.3333C12.0406 18.3333 12.7189 18.0524 13.219 17.5523C13.7191 17.0522 14 16.3739 14 15.6667C14 14.9594 13.7191 14.2811 13.219 13.781C12.7189 13.281 12.0406 13 11.3334 13C10.6261 13 9.94783 13.281 9.44774 13.781C8.94764 14.2811 8.66669 14.9594 8.66669 15.6667C8.66669 16.3739 8.94764 17.0522 9.44774 17.5523C9.94783 18.0524 10.6261 18.3333 11.3334 18.3333V18.3333ZM24.6667 18.3333C25.3739 18.3333 26.0522 18.0524 26.5523 17.5523C27.0524 17.0522 27.3334 16.3739 27.3334 15.6667C27.3334 14.9594 27.0524 14.2811 26.5523 13.781C26.0522 13.281 25.3739 13 24.6667 13C23.9594 13 23.2812 13.281 22.7811 13.781C22.281 14.2811 22 14.9594 22 15.6667C22 16.3739 22.281 17.0522 22.7811 17.5523C23.2812 18.0524 23.9594 18.3333 24.6667 18.3333V18.3333Z" stroke="black" stroke-width="1.5" stroke-miterlimit="1.5" stroke-linecap="round" stroke-linejoin="round"/>
<path d="M8.2 15.6667H5.46667C5.36161 15.6667 5.25758 15.646 5.16052 15.6058C5.06346 15.5656 4.97527 15.5066 4.90098 15.4324C4.82669 15.3581 4.76777 15.2699 4.72756 15.1728C4.68736 15.0758 4.66667 14.9717 4.66667 14.8667V8.33333M14.0667 15.6667H20.6667V1.8C20.6667 1.58783 20.5824 1.38434 20.4324 1.23431C20.2823 1.08429 20.0788 1 19.8667 1H2L14.0667 15.6667Z" stroke="black" stroke-width="1.5" stroke-linecap="round"/>
<path d="M3.33331 5H8.66665" stroke="black" stroke-width="1.5" stroke-linecap="round" stroke-linejoin="round"/>
<path d="M20.6667 15.6667H22M20.6667 5H28.1467C28.3013 5.00004 28.4526 5.04489 28.5823 5.12913C28.712 5.21338 28.8145 5.33339 28.8774 5.47467L31.264 10.8453C31.3095 10.9473 31.3331 11.0577 31.3334 11.1693V14.8667C31.3334 14.9717 31.3127 15.0758 31.2725 15.1728C31.2323 15.2699 31.1733 15.3581 31.099 15.4324C31.0248 15.5066 30.9366 15.5656 30.8395 15.6058C30.7424 15.646 30.6384 15.6667 30.5334 15.6667H28L20.6667 5Z" stroke="black" stroke-width="1.5" stroke-linecap="round"/>
</svg>
