<svg width="20" height="20" viewBox="0 0 20 20" fill="none" xmlns="http://www.w3.org/2000/svg">
<path d="M14.6781 12.6137C15.8884 11.0022 16.4305 9.00415 16.1959 7.01938C15.9613 5.03461 14.9673 3.20946 13.4128 1.90907C11.8583 0.608683 9.85794 -0.0710428 7.81187 0.00588364C5.76581 0.0828101 3.82496 0.910715 2.37762 2.32397C0.930277 3.73722 0.0831823 5.63159 0.00580795 7.62808C-0.0715664 9.62458 0.626485 11.576 1.96031 13.0918C3.29413 14.6077 5.16536 15.5763 7.19963 15.8037C9.23389 16.0312 11.2812 15.5009 12.9319 14.3187H12.9306C12.9681 14.3675 13.0081 14.4139 13.0531 14.459L17.8654 19.1546C18.0998 19.3834 18.4178 19.5121 18.7493 19.5122C19.0809 19.5123 19.399 19.3839 19.6335 19.1552C19.8681 18.9265 19.9999 18.6163 20 18.2927C20.0001 17.9692 19.8685 17.6589 19.6341 17.43L14.8218 12.7344C14.7771 12.6903 14.7291 12.6507 14.6781 12.6137ZM15.0006 7.92539C15.0006 8.8063 14.8227 9.67858 14.4773 10.4924C14.1318 11.3063 13.6254 12.0458 12.987 12.6687C12.3486 13.2916 11.5907 13.7857 10.7567 14.1228C9.92258 14.4599 9.02862 14.6334 8.12582 14.6334C7.22301 14.6334 6.32905 14.4599 5.49497 14.1228C4.66089 13.7857 3.90302 13.2916 3.26464 12.6687C2.62626 12.0458 2.11987 11.3063 1.77438 10.4924C1.4289 9.67858 1.25108 8.8063 1.25108 7.92539C1.25108 6.14631 1.97538 4.4401 3.26464 3.18211C4.55391 1.92411 6.30252 1.21738 8.12582 1.21738C9.94911 1.21738 11.6977 1.92411 12.987 3.18211C14.2763 4.4401 15.0006 6.14631 15.0006 7.92539Z" fill="#2D2D2D"/>
</svg>
