<svg width="22" height="22" viewBox="0 0 22 22" fill="none" xmlns="http://www.w3.org/2000/svg">
<path d="M14.2453 6.66052L14.3617 6.89632L14.6219 6.93413L21.2155 7.8924C21.2157 7.89243 21.2159 7.89246 21.2162 7.8925C21.402 7.92048 21.5231 8.08995 21.4961 8.26449L21.4961 8.26449L21.4953 8.27003C21.4852 8.34076 21.4518 8.40677 21.3992 8.45855C21.399 8.45869 21.3989 8.45883 21.3987 8.45898L16.628 13.1103L16.4398 13.2938L16.4842 13.5529L17.6115 20.1221L17.6116 20.1224C17.6424 20.3011 17.5225 20.472 17.3414 20.5033L17.3407 20.5034C17.2687 20.5159 17.1948 20.5038 17.134 20.4715L17.1318 20.4703L11.2327 17.3688L11.0001 17.2465L10.7674 17.3688L4.86834 20.4703L4.86757 20.4707C4.81305 20.4995 4.75156 20.5124 4.69007 20.508C4.62857 20.5037 4.56954 20.4821 4.51965 20.4459C4.46977 20.4097 4.43104 20.3602 4.40785 20.3031C4.38466 20.2459 4.37793 20.1835 4.38844 20.1227L4.38856 20.1221L5.51589 13.5529L5.56035 13.2938L5.37214 13.1103L0.600444 8.45808L0.600413 8.45805C0.537302 8.39653 0.501197 8.31247 0.500029 8.22434C0.498866 8.13652 0.532498 8.05181 0.59356 7.98871C0.645304 7.93619 0.71124 7.90289 0.781879 7.8928L0.783079 7.89263L7.37825 6.93413L7.63844 6.89632L7.75476 6.66052L10.7018 0.68598C10.7019 0.685649 10.7021 0.685318 10.7023 0.684987C10.7855 0.519888 10.9857 0.454174 11.1476 0.534072L11.1482 0.534358C11.2128 0.566154 11.2651 0.618508 11.2969 0.683128L11.2971 0.68356L14.2453 6.66052ZM7.30634 6.43933L0.711168 7.39782L10.2546 0.462373L7.30634 6.43933Z" stroke="black"/>
</svg>
